<svg width="61" height="22" viewBox="0 0 61 22" fill="none" xmlns="http://www.w3.org/2000/svg">
    <path
        d="M0 2C0 0.89543 0.89543 0 2 0H59C60.1046 0 61 0.895431 61 2V20C61 21.1046 60.1046 22 59 22H2C0.895432 22 0 21.1046 0 20V2Z"
        fill="#F6F9FC" />
    <path
        d="M15.7812 7.82422L10.75 11.9805V16.4375C10.75 16.6836 10.9414 16.875 11.1875 16.875H14.25C14.4688 16.875 14.6602 16.6836 14.6602 16.4375V13.8125C14.6602 13.5938 14.8789 13.375 15.0977 13.375H16.8477C17.0938 13.375 17.2852 13.5938 17.2852 13.8125V16.4375C17.2852 16.6836 17.5039 16.875 17.7227 16.875H20.8125C21.0312 16.875 21.25 16.6836 21.25 16.4375V11.9531L16.1914 7.82422C16.1367 7.76953 16.0547 7.74219 16 7.74219C15.918 7.74219 15.8359 7.76953 15.7812 7.82422ZM23.7383 10.6406L21.4688 8.75391V4.98047C21.4688 4.78906 21.3047 4.65234 21.1406 4.65234H19.6094C19.418 4.65234 19.2812 4.78906 19.2812 4.98047V6.94922L16.8203 4.92578C16.6289 4.76172 16.2461 4.65234 15.9727 4.65234C15.7266 4.65234 15.3438 4.76172 15.1523 4.92578L8.23438 10.6406C8.15234 10.6953 8.09766 10.8047 8.09766 10.8867C8.09766 10.9688 8.15234 11.0508 8.17969 11.1055L8.89062 11.9531C8.94531 12.0078 9.05469 12.0625 9.13672 12.0625C9.19141 12.0625 9.30078 12.0352 9.35547 11.9805L15.7812 6.70312C15.8359 6.64844 15.918 6.62109 16 6.62109C16.0547 6.62109 16.1367 6.64844 16.1914 6.70312L22.6172 11.9805C22.6719 12.0352 22.7812 12.0625 22.8359 12.0625C22.918 12.0625 23.0273 12.0078 23.082 11.9531L23.793 11.1055C23.8203 11.0508 23.875 10.9688 23.875 10.8867C23.875 10.8047 23.8203 10.6953 23.7383 10.6406Z"
        fill="#A1A1A1" />
    <path
        d="M35.72 15.12C34.792 15.12 34.064 14.9 33.536 14.46C33.016 14.02 32.756 13.36 32.756 12.48V8.52H34.064V12.528C34.064 13.064 34.204 13.456 34.484 13.704C34.772 13.952 35.184 14.076 35.72 14.076C36.264 14.076 36.676 13.952 36.956 13.704C37.244 13.456 37.388 13.064 37.388 12.528V8.52H38.684V12.48C38.684 13.36 38.424 14.02 37.904 14.46C37.384 14.9 36.656 15.12 35.72 15.12ZM36.0771 7.536V6.432H35.1291V5.532H36.9771V6.624H39.5691L39.5211 7.536H36.0771ZM42.9371 15V10.92C42.9371 10.592 42.9011 10.32 42.8291 10.104C42.7571 9.888 42.6211 9.728 42.4211 9.624C42.2211 9.512 41.9251 9.456 41.5331 9.456C41.2771 9.456 40.9971 9.484 40.6931 9.54C40.3971 9.596 40.1291 9.672 39.8891 9.768V8.76C40.1291 8.656 40.4171 8.572 40.7531 8.508C41.0971 8.436 41.4411 8.4 41.7851 8.4C42.6491 8.4 43.2731 8.588 43.6571 8.964C44.0491 9.34 44.2451 9.936 44.2451 10.752V15H42.9371ZM48.1223 15.12C47.4263 15.12 46.8823 14.916 46.4903 14.508C46.1063 14.1 45.9143 13.52 45.9143 12.768V8.52H47.2223V12.708C47.2223 13.196 47.3303 13.548 47.5463 13.764C47.7623 13.972 48.0983 14.076 48.5543 14.076C48.9063 14.076 49.2423 14.004 49.5623 13.86C49.8823 13.708 50.1463 13.52 50.3543 13.296V8.52H51.6503V15H50.4623L50.4023 14.292C50.1063 14.54 49.7703 14.74 49.3943 14.892C49.0263 15.044 48.6023 15.12 48.1223 15.12Z"
        fill="#A1A1A1" />
    <path
        d="M2 1H59V-1H2V1ZM60 2V20H62V2H60ZM59 21H2V23H59V21ZM1 20V2H-1V20H1ZM2 21C1.44772 21 1 20.5523 1 20H-1C-1 21.6569 0.343148 23 2 23V21ZM60 20C60 20.5523 59.5523 21 59 21V23C60.6569 23 62 21.6569 62 20H60ZM59 1C59.5523 1 60 1.44772 60 2H62C62 0.343145 60.6569 -1 59 -1V1ZM2 -1C0.343146 -1 -1 0.343145 -1 2H1C1 1.44772 1.44771 1 2 1V-1Z"
        fill="#A1A1A1" />
</svg>