<svg width="93" height="22" viewBox="0 0 93 22" fill="none" xmlns="http://www.w3.org/2000/svg">
    <path
        d="M0 2C0 0.89543 0.895431 0 2 0H91C92.1046 0 93 0.895431 93 2V20C93 21.1046 92.1046 22 91 22H2C0.895429 22 0 21.1046 0 20V2Z"
        fill="#F6F9FC" />
    <path
        d="M15.207 4.24219L13.4297 7.87891L9.41016 8.45312C8.69922 8.5625 8.42578 9.4375 8.94531 9.95703L11.8164 12.7734L11.1328 16.7383C11.0234 17.4492 11.7891 17.9961 12.418 17.668L16 15.7812L19.5547 17.668C20.1836 17.9961 20.9492 17.4492 20.8398 16.7383L20.1562 12.7734L23.0273 9.95703C23.5469 9.4375 23.2734 8.5625 22.5625 8.45312L18.5703 7.87891L16.7656 4.24219C16.4648 3.61328 15.5352 3.58594 15.207 4.24219Z"
        fill="#212121" />
    <path
        d="M32.756 15V8.52H33.944L34.016 9.228C34.312 8.972 34.648 8.772 35.024 8.628C35.4 8.476 35.832 8.4 36.32 8.4C37.008 8.4 37.54 8.604 37.916 9.012C38.3 9.42 38.492 9.992 38.492 10.728V15H37.196V10.788C37.196 10.316 37.084 9.976 36.86 9.768C36.636 9.56 36.3 9.456 35.852 9.456C35.492 9.456 35.156 9.532 34.844 9.684C34.532 9.828 34.272 10.012 34.064 10.236V15H32.756ZM33.6336 7.536L33.6936 6.624H37.5576V5.628H38.6376V7.536H33.6336ZM37.6976 5.076V3.408H38.7776V5.076H37.6976ZM42.8656 15.12C42.3536 15.12 41.8696 15.072 41.4136 14.976C40.9656 14.88 40.5896 14.768 40.2856 14.64V11.304H42.8536L42.9136 12.3H41.5456V13.872C41.7296 13.936 41.9376 13.988 42.1696 14.028C42.4096 14.06 42.6416 14.076 42.8656 14.076C43.5776 14.076 44.0776 13.908 44.3656 13.572C44.6616 13.228 44.8096 12.632 44.8096 11.784C44.8096 11.192 44.7376 10.728 44.5936 10.392C44.4496 10.048 44.2096 9.808 43.8736 9.672C43.5456 9.528 43.0976 9.456 42.5296 9.456C42.1856 9.456 41.8256 9.48 41.4496 9.528C41.0736 9.576 40.7176 9.656 40.3816 9.768V8.76C40.7176 8.648 41.1016 8.56 41.5336 8.496C41.9736 8.432 42.4136 8.4 42.8536 8.4C43.9896 8.4 44.8096 8.688 45.3136 9.264C45.8176 9.832 46.0696 10.672 46.0696 11.784C46.0696 12.872 45.8176 13.7 45.3136 14.268C44.8096 14.836 43.9936 15.12 42.8656 15.12ZM50.196 15.12C49.62 15.12 49.108 15.052 48.66 14.916C48.212 14.78 47.856 14.564 47.592 14.268C47.336 13.972 47.208 13.58 47.208 13.092C47.208 12.764 47.284 12.476 47.436 12.228C47.588 11.972 47.812 11.772 48.108 11.628C47.86 11.532 47.652 11.368 47.484 11.136C47.324 10.904 47.244 10.616 47.244 10.272C47.244 9.656 47.432 9.192 47.808 8.88C48.192 8.56 48.68 8.4 49.272 8.4C49.504 8.4 49.704 8.416 49.872 8.448C50.04 8.472 50.192 8.508 50.328 8.556V9.552C50.096 9.488 49.824 9.456 49.512 9.456C49.192 9.456 48.944 9.52 48.768 9.648C48.592 9.776 48.504 9.984 48.504 10.272C48.504 10.576 48.604 10.796 48.804 10.932C49.004 11.06 49.28 11.124 49.632 11.124H50.316L50.376 12.096H49.608C48.848 12.096 48.468 12.428 48.468 13.092C48.468 13.42 48.604 13.668 48.876 13.836C49.148 13.996 49.568 14.076 50.136 14.076C51.264 14.076 51.828 13.616 51.828 12.696V8.52H53.124V12.54C53.124 13.412 52.88 14.06 52.392 14.484C51.904 14.908 51.172 15.12 50.196 15.12ZM51.8081 18.132C51.3681 18.132 51.0241 18.032 50.7761 17.832C50.5201 17.64 50.3921 17.4 50.3921 17.112V16.5H49.7441L49.7921 15.684H51.3281V16.896C51.3281 17.16 51.4881 17.292 51.8081 17.292C52.1361 17.292 52.3001 17.16 52.3001 16.896V15.684H53.2481V16.98C53.2481 17.292 53.1281 17.56 52.8881 17.784C52.6481 18.016 52.2881 18.132 51.8081 18.132ZM52.0921 7.524V5.556H53.4001V7.524H52.0921ZM57.4761 15.12C56.9721 15.12 56.5201 15.008 56.1201 14.784C55.7201 14.56 55.4041 14.208 55.1721 13.728C54.9401 13.24 54.8241 12.616 54.8241 11.856C54.8241 10.736 55.0121 9.88 55.3881 9.288C55.7641 8.696 56.2881 8.4 56.9601 8.4C57.2881 8.4 57.5481 8.46 57.7401 8.58C57.9401 8.692 58.1121 8.84 58.2561 9.024C58.4241 8.84 58.6441 8.692 58.9161 8.58C59.1881 8.46 59.4641 8.4 59.7441 8.4C60.2641 8.4 60.6521 8.556 60.9081 8.868C61.1641 9.172 61.2921 9.596 61.2921 10.14V15H59.9841V10.332C59.9841 10.028 59.9401 9.808 59.8521 9.672C59.7721 9.528 59.6041 9.456 59.3481 9.456C59.1881 9.456 59.0401 9.5 58.9041 9.588C58.7681 9.676 58.6681 9.816 58.6041 10.008H57.8841C57.7881 9.816 57.6881 9.676 57.5841 9.588C57.4801 9.5 57.3321 9.456 57.1401 9.456C56.7241 9.456 56.4441 9.676 56.3001 10.116C56.1561 10.556 56.0841 11.136 56.0841 11.856C56.0841 12.68 56.2241 13.256 56.5041 13.584C56.7841 13.912 57.1841 14.076 57.7041 14.076C57.8561 14.076 58.0041 14.068 58.1481 14.052C58.3001 14.036 58.4281 14.012 58.5321 13.98V14.976C58.3961 15.024 58.2441 15.06 58.0761 15.084C57.9081 15.108 57.7081 15.12 57.4761 15.12ZM58.5939 7.536V5.784H59.6739V6.624H62.7819L62.7219 7.536H58.5939ZM59.9883 5.004V4.068H59.2443V3.228H60.8403V4.164H62.6883L62.6403 5.004H59.9883ZM65.7859 15.12C65.6019 15.12 65.3979 15.108 65.1739 15.084C64.9499 15.06 64.7539 15.02 64.5859 14.964L62.7619 10.524H64.0339L65.5099 14.124C66.1979 14.156 66.6979 13.96 67.0099 13.536C67.3219 13.104 67.4779 12.444 67.4779 11.556C67.4779 11.036 67.4299 10.628 67.3339 10.332C67.2379 10.028 67.0739 9.816 66.8419 9.696C66.6179 9.568 66.3059 9.504 65.9059 9.504H65.4499V8.52H66.0739C67.0019 8.52 67.6779 8.768 68.1019 9.264C68.5259 9.76 68.7379 10.52 68.7379 11.544C68.7379 12.392 68.6099 13.08 68.3539 13.608C68.0979 14.128 67.7459 14.512 67.2979 14.76C66.8579 15 66.3539 15.12 65.7859 15.12ZM72.5674 15.12C72.0634 15.12 71.6114 15.008 71.2114 14.784C70.8114 14.56 70.4954 14.208 70.2634 13.728C70.0314 13.24 69.9154 12.616 69.9154 11.856C69.9154 10.736 70.1034 9.88 70.4794 9.288C70.8554 8.696 71.3794 8.4 72.0514 8.4C72.3794 8.4 72.6394 8.46 72.8314 8.58C73.0314 8.692 73.2034 8.84 73.3474 9.024C73.5154 8.84 73.7354 8.692 74.0074 8.58C74.2794 8.46 74.5554 8.4 74.8354 8.4C75.3554 8.4 75.7434 8.556 75.9994 8.868C76.2554 9.172 76.3834 9.596 76.3834 10.14V15H75.0754V10.332C75.0754 10.028 75.0314 9.808 74.9434 9.672C74.8634 9.528 74.6954 9.456 74.4394 9.456C74.2794 9.456 74.1314 9.5 73.9954 9.588C73.8594 9.676 73.7594 9.816 73.6954 10.008H72.9754C72.8794 9.816 72.7794 9.676 72.6754 9.588C72.5714 9.5 72.4234 9.456 72.2314 9.456C71.8154 9.456 71.5354 9.676 71.3914 10.116C71.2474 10.556 71.1754 11.136 71.1754 11.856C71.1754 12.68 71.3154 13.256 71.5954 13.584C71.8754 13.912 72.2754 14.076 72.7954 14.076C72.9474 14.076 73.0954 14.068 73.2394 14.052C73.3914 14.036 73.5194 14.012 73.6234 13.98V14.976C73.4874 15.024 73.3354 15.06 73.1674 15.084C72.9994 15.108 72.7994 15.12 72.5674 15.12ZM73.7812 7.536V6.432H72.8332V5.532H74.6812V6.624H77.2732L77.2252 7.536H73.7812ZM80.4012 15.12C79.7052 15.12 79.1612 14.916 78.7692 14.508C78.3852 14.1 78.1932 13.52 78.1932 12.768V8.52H79.5012V12.708C79.5012 13.196 79.6092 13.548 79.8252 13.764C80.0412 13.972 80.3772 14.076 80.8332 14.076C81.1852 14.076 81.5212 14.004 81.8412 13.86C82.1612 13.708 82.4252 13.52 82.6332 13.296V8.52H83.9292V15H82.7412L82.6812 14.292C82.3852 14.54 82.0492 14.74 81.6732 14.892C81.3052 15.044 80.8812 15.12 80.4012 15.12Z"
        fill="#212121" />
    <path
        d="M2 1H91V-1H2V1ZM92 2V20H94V2H92ZM91 21H2V23H91V21ZM1 20V2H-1V20H1ZM2 21C1.44771 21 1 20.5523 1 20H-1C-1 21.6569 0.343143 23 2 23V21ZM92 20C92 20.5523 91.5523 21 91 21V23C92.6569 23 94 21.6569 94 20H92ZM91 1C91.5523 1 92 1.44771 92 2H94C94 0.343147 92.6569 -1 91 -1V1ZM2 -1C0.343146 -1 -1 0.343145 -1 2H1C1 1.44772 1.44771 1 2 1V-1Z"
        fill="#212121" />
</svg>