<svg width="81" height="22" viewBox="0 0 81 22" fill="none" xmlns="http://www.w3.org/2000/svg">
    <path
        d="M0 2C0 0.89543 0.895431 0 2 0H79C80.1046 0 81 0.895431 81 2V20C81 21.1046 80.1046 22 79 22H2C0.895429 22 0 21.1046 0 20V2Z"
        fill="#F6F9FC" />
    <path
        d="M21.7969 16.875H21.25V4.40625C21.25 4.05078 20.9492 3.75 20.5938 3.75H11.4062C11.0234 3.75 10.75 4.05078 10.75 4.40625V16.875H10.2031C10.0117 16.875 9.875 17.0391 9.875 17.2031V17.75H22.125V17.2031C22.125 17.0391 21.9609 16.875 21.7969 16.875ZM13.375 5.82812C13.375 5.66406 13.5117 5.5 13.7031 5.5H14.7969C14.9609 5.5 15.125 5.66406 15.125 5.82812V6.92188C15.125 7.11328 14.9609 7.25 14.7969 7.25H13.7031C13.5117 7.25 13.375 7.11328 13.375 6.92188V5.82812ZM13.375 8.45312C13.375 8.28906 13.5117 8.125 13.7031 8.125H14.7969C14.9609 8.125 15.125 8.28906 15.125 8.45312V9.54688C15.125 9.73828 14.9609 9.875 14.7969 9.875H13.7031C13.5117 9.875 13.375 9.73828 13.375 9.54688V8.45312ZM14.7969 12.5H13.7031C13.5117 12.5 13.375 12.3633 13.375 12.1719V11.0781C13.375 10.9141 13.5117 10.75 13.7031 10.75H14.7969C14.9609 10.75 15.125 10.9141 15.125 11.0781V12.1719C15.125 12.3633 14.9609 12.5 14.7969 12.5ZM16.875 16.875H15.125V14.5781C15.125 14.4141 15.2617 14.25 15.4531 14.25H16.5469C16.7109 14.25 16.875 14.4141 16.875 14.5781V16.875ZM18.625 12.1719C18.625 12.3633 18.4609 12.5 18.2969 12.5H17.2031C17.0117 12.5 16.875 12.3633 16.875 12.1719V11.0781C16.875 10.9141 17.0117 10.75 17.2031 10.75H18.2969C18.4609 10.75 18.625 10.9141 18.625 11.0781V12.1719ZM18.625 9.54688C18.625 9.73828 18.4609 9.875 18.2969 9.875H17.2031C17.0117 9.875 16.875 9.73828 16.875 9.54688V8.45312C16.875 8.28906 17.0117 8.125 17.2031 8.125H18.2969C18.4609 8.125 18.625 8.28906 18.625 8.45312V9.54688ZM18.625 6.92188C18.625 7.11328 18.4609 7.25 18.2969 7.25H17.2031C17.0117 7.25 16.875 7.11328 16.875 6.92188V5.82812C16.875 5.66406 17.0117 5.5 17.2031 5.5H18.2969C18.4609 5.5 18.625 5.66406 18.625 5.82812V6.92188Z"
        fill="#A1A1A1" />
    <path
        d="M32.756 15V8.52H33.944L34.016 9.228C34.312 8.972 34.648 8.772 35.024 8.628C35.4 8.476 35.832 8.4 36.32 8.4C37.008 8.4 37.54 8.604 37.916 9.012C38.3 9.42 38.492 9.992 38.492 10.728V15H37.196V10.788C37.196 10.316 37.084 9.976 36.86 9.768C36.636 9.56 36.3 9.456 35.852 9.456C35.492 9.456 35.156 9.532 34.844 9.684C34.532 9.828 34.272 10.012 34.064 10.236V15H32.756ZM33.6336 7.536L33.6936 6.624H37.5576V5.628H38.6376V7.536H33.6336ZM37.6976 5.076V3.408H38.7776V5.076H37.6976ZM40.4416 15V8.52H41.6296L41.7016 9.228C41.9976 8.972 42.3336 8.772 42.7096 8.628C43.0856 8.476 43.5176 8.4 44.0056 8.4C44.6936 8.4 45.2256 8.604 45.6016 9.012C45.9856 9.42 46.1776 9.992 46.1776 10.728V15H44.8816V10.788C44.8816 10.316 44.7696 9.976 44.5456 9.768C44.3216 9.56 43.9856 9.456 43.5376 9.456C43.1776 9.456 42.8416 9.532 42.5296 9.684C42.2176 9.828 41.9576 10.012 41.7496 10.236V15H40.4416ZM45.6633 7.824C45.2873 7.824 44.9673 7.7 44.7033 7.452C44.4393 7.204 44.3073 6.896 44.3073 6.528C44.3073 6.152 44.4393 5.84 44.7033 5.592C44.9673 5.344 45.2873 5.22 45.6633 5.22C46.0393 5.22 46.3593 5.344 46.6233 5.592C46.8793 5.84 47.0073 6.152 47.0073 6.528C47.0073 6.896 46.8793 7.204 46.6233 7.452C46.3593 7.7 46.0393 7.824 45.6633 7.824ZM45.6633 7.08C45.8153 7.08 45.9473 7.024 46.0593 6.912C46.1633 6.8 46.2153 6.672 46.2153 6.528C46.2153 6.368 46.1633 6.232 46.0593 6.12C45.9473 6.008 45.8153 5.952 45.6633 5.952C45.5113 5.952 45.3793 6.008 45.2673 6.12C45.1473 6.232 45.0873 6.368 45.0873 6.528C45.0873 6.672 45.1473 6.8 45.2673 6.912C45.3793 7.024 45.5113 7.08 45.6633 7.08ZM50.4353 15V10.92C50.4353 10.592 50.3993 10.32 50.3273 10.104C50.2552 9.888 50.1192 9.728 49.9192 9.624C49.7192 9.512 49.4232 9.456 49.0312 9.456C48.7752 9.456 48.4952 9.484 48.1912 9.54C47.8952 9.596 47.6272 9.672 47.3872 9.768V8.76C47.6272 8.656 47.9152 8.572 48.2512 8.508C48.5952 8.436 48.9392 8.4 49.2832 8.4C50.1472 8.4 50.7713 8.588 51.1553 8.964C51.5473 9.34 51.7433 9.936 51.7433 10.752V15H50.4353ZM55.9564 15.12C55.7724 15.12 55.5684 15.108 55.3444 15.084C55.1204 15.06 54.9244 15.02 54.7564 14.964L52.9324 10.524H54.2044L55.6804 14.124C56.3684 14.156 56.8684 13.96 57.1804 13.536C57.4924 13.104 57.6484 12.444 57.6484 11.556C57.6484 11.036 57.6004 10.628 57.5044 10.332C57.4084 10.028 57.2444 9.816 57.0124 9.696C56.7884 9.568 56.4764 9.504 56.0764 9.504H55.6204V8.52H56.2444C57.1724 8.52 57.8484 8.768 58.2724 9.264C58.6964 9.76 58.9084 10.52 58.9084 11.544C58.9084 12.392 58.7804 13.08 58.5244 13.608C58.2684 14.128 57.9164 14.512 57.4684 14.76C57.0284 15 56.5244 15.12 55.9564 15.12ZM62.7738 15V10.92C62.7738 10.592 62.7378 10.32 62.6658 10.104C62.5938 9.888 62.4578 9.728 62.2578 9.624C62.0578 9.512 61.7618 9.456 61.3698 9.456C61.1138 9.456 60.8338 9.484 60.5298 9.54C60.2338 9.596 59.9658 9.672 59.7258 9.768V8.76C59.9658 8.656 60.2538 8.572 60.5898 8.508C60.9338 8.436 61.2778 8.4 61.6218 8.4C62.4858 8.4 63.1098 8.588 63.4938 8.964C63.8858 9.34 64.0818 9.936 64.0818 10.752V15H62.7738ZM67.959 15.12C67.263 15.12 66.719 14.916 66.327 14.508C65.943 14.1 65.751 13.52 65.751 12.768V8.52H67.059V12.708C67.059 13.196 67.167 13.548 67.383 13.764C67.599 13.972 67.935 14.076 68.391 14.076C68.743 14.076 69.079 14.004 69.399 13.86C69.719 13.708 69.983 13.52 70.191 13.296V8.52H71.487V15H70.299L70.239 14.292C69.943 14.54 69.607 14.74 69.231 14.892C68.863 15.044 68.439 15.12 67.959 15.12Z"
        fill="#A1A1A1" />
    <path
        d="M2 1H79V-1H2V1ZM80 2V20H82V2H80ZM79 21H2V23H79V21ZM1 20V2H-1V20H1ZM2 21C1.44771 21 1 20.5523 1 20H-1C-1 21.6569 0.343144 23 2 23V21ZM80 20C80 20.5523 79.5523 21 79 21V23C80.6569 23 82 21.6569 82 20H80ZM79 1C79.5523 1 80 1.44771 80 2H82C82 0.343147 80.6569 -1 79 -1V1ZM2 -1C0.343146 -1 -1 0.343145 -1 2H1C1 1.44772 1.44771 1 2 1V-1Z"
        fill="#A1A1A1" />
</svg>