<svg width="89" height="22" viewBox="0 0 89 22" fill="none" xmlns="http://www.w3.org/2000/svg">
    <rect x="0.5" y="0.5" width="88" height="21" rx="1.5" fill="#F6F9FC" />
    <path
        d="M15.207 4.24219L13.4297 7.87891L9.41016 8.45312C8.69922 8.5625 8.42578 9.4375 8.94531 9.95703L11.8164 12.7734L11.1328 16.7383C11.0234 17.4492 11.7891 17.9961 12.418 17.668L16 15.7812L19.5547 17.668C20.1836 17.9961 20.9492 17.4492 20.8398 16.7383L20.1562 12.7734L23.0273 9.95703C23.5469 9.4375 23.2734 8.5625 22.5625 8.45312L18.5703 7.87891L16.7656 4.24219C16.4648 3.61328 15.5352 3.58594 15.207 4.24219Z"
        fill="#212121" />
    <path
        d="M35.72 15.12C34.792 15.12 34.064 14.9 33.536 14.46C33.016 14.02 32.756 13.36 32.756 12.48V8.52H34.064V12.528C34.064 13.064 34.204 13.456 34.484 13.704C34.772 13.952 35.184 14.076 35.72 14.076C36.264 14.076 36.676 13.952 36.956 13.704C37.244 13.456 37.388 13.064 37.388 12.528V8.52H38.684V12.48C38.684 13.36 38.424 14.02 37.904 14.46C37.384 14.9 36.656 15.12 35.72 15.12ZM35.9811 7.536V5.784H37.0611V6.624H40.1691L40.1091 7.536H35.9811ZM47.7731 15.732C47.3811 15.732 46.9651 15.692 46.5251 15.612C46.0851 15.532 45.6971 15.4 45.3611 15.216V14.172C45.5931 14.292 45.8491 14.392 46.1291 14.472C46.4171 14.544 46.7011 14.6 46.9811 14.64C47.2691 14.672 47.5251 14.688 47.7491 14.688C48.3091 14.688 48.7371 14.624 49.0331 14.496C49.3291 14.368 49.4771 14.2 49.4771 13.992C49.4771 13.84 49.4211 13.708 49.3091 13.596C49.1171 13.708 48.8891 13.8 48.6251 13.872C48.3611 13.944 48.0611 13.98 47.7251 13.98C45.8291 13.98 44.8811 13.1 44.8811 11.34V10.944C44.8811 10.392 44.7571 10.008 44.5091 9.792C44.2691 9.568 43.8571 9.456 43.2731 9.456C42.8811 9.456 42.5171 9.512 42.1811 9.624C41.8451 9.736 41.5771 9.884 41.3771 10.068V10.284L42.7451 10.632V11.496C42.4331 11.576 42.2131 11.704 42.0851 11.88C41.9571 12.056 41.8931 12.32 41.8931 12.672V13.452C41.8931 13.636 41.9331 13.768 42.0131 13.848C42.0931 13.928 42.2211 13.968 42.3971 13.968H43.0571V15H41.7611C41.4011 15 41.1171 14.888 40.9091 14.664C40.7011 14.44 40.5971 14.148 40.5971 13.788V12.66C40.5971 12.308 40.6651 12 40.8011 11.736C40.9371 11.464 41.1851 11.276 41.5451 11.172L40.2491 10.848V9.504C40.5691 9.224 40.9891 8.972 41.5091 8.748C42.0291 8.516 42.6331 8.4 43.3211 8.4C44.2411 8.4 44.9411 8.6 45.4211 9C45.9091 9.392 46.1531 10.052 46.1531 10.98V11.388C46.1531 11.924 46.2771 12.316 46.5251 12.564C46.7811 12.812 47.1811 12.936 47.7251 12.936C48.2691 12.936 48.6651 12.812 48.9131 12.564C49.1691 12.316 49.2971 11.924 49.2971 11.388V8.52H50.5931V11.34C50.5931 12.012 50.4451 12.548 50.1491 12.948C50.2851 13.076 50.3931 13.236 50.4731 13.428C50.5611 13.62 50.6051 13.832 50.6051 14.064C50.6051 14.6 50.3571 15.012 49.8611 15.3C49.3731 15.588 48.6771 15.732 47.7731 15.732ZM54.9298 15.12C54.0178 15.12 53.3258 14.908 52.8538 14.484C52.3898 14.06 52.1578 13.464 52.1578 12.696V12.06C52.1578 11.804 52.2098 11.568 52.3138 11.352C52.4258 11.136 52.5498 10.94 52.6858 10.764C52.8298 10.58 52.9538 10.412 53.0578 10.26C53.1698 10.1 53.2258 9.952 53.2258 9.816C53.2258 9.688 53.1978 9.604 53.1418 9.564C53.0858 9.524 52.9858 9.504 52.8418 9.504H52.0138L52.1218 8.52H53.6338C54.2418 8.52 54.5458 8.812 54.5458 9.396C54.5458 9.668 54.4898 9.912 54.3778 10.128C54.2738 10.344 54.1458 10.552 53.9938 10.752C53.8498 10.952 53.7218 11.16 53.6098 11.376C53.5058 11.584 53.4538 11.816 53.4538 12.072V12.804C53.4538 13.244 53.5818 13.568 53.8378 13.776C54.1018 13.976 54.4658 14.076 54.9298 14.076C55.4018 14.076 55.7658 13.972 56.0218 13.764C56.2858 13.556 56.4178 13.224 56.4178 12.768V11.976C56.4178 11.6 56.3578 11.34 56.2378 11.196C56.1178 11.044 55.8938 10.968 55.5658 10.968H55.2298L55.2898 10.02H55.5298C55.8658 10.02 56.0978 9.94 56.2258 9.78C56.3538 9.612 56.4178 9.356 56.4178 9.012V8.4H57.7258V8.988C57.7258 9.364 57.6698 9.676 57.5578 9.924C57.4458 10.164 57.2138 10.352 56.8618 10.488C57.2298 10.64 57.4658 10.84 57.5698 11.088C57.6738 11.336 57.7258 11.644 57.7258 12.012V12.684C57.7258 13.452 57.4778 14.052 56.9818 14.484C56.4858 14.908 55.8018 15.12 54.9298 15.12ZM52.8622 7.536L52.9222 6.624H56.7862V5.628H57.8662V7.536H52.8622ZM59.5302 15V8.52H60.8382V10.56H62.7102C63.1822 10.56 63.5062 10.46 63.6822 10.26C63.8662 10.052 63.9582 9.752 63.9582 9.36V8.52H65.2542V9.324C65.2542 9.724 65.1822 10.076 65.0382 10.38C64.9022 10.684 64.6502 10.904 64.2822 11.04C64.6502 11.168 64.8942 11.372 65.0142 11.652C65.1342 11.924 65.1942 12.244 65.1942 12.612V15H63.8982V12.768C63.8982 12.304 63.8102 11.988 63.6342 11.82C63.4582 11.644 63.1342 11.556 62.6622 11.556H60.8382V15H59.5302ZM68.9164 15.12C68.5084 15.12 68.1364 15.056 67.8004 14.928C67.4724 14.792 67.2084 14.58 67.0084 14.292C66.8084 13.996 66.7084 13.612 66.7084 13.14C66.7084 12.508 66.9204 12.016 67.3444 11.664C67.7764 11.312 68.4044 11.136 69.2284 11.136H71.2084V10.728C71.2084 10.256 71.0884 9.928 70.8484 9.744C70.6164 9.552 70.1804 9.456 69.5404 9.456C69.1644 9.456 68.8004 9.48 68.4484 9.528C68.1044 9.576 67.7644 9.656 67.4284 9.768V8.76C67.7404 8.656 68.1004 8.572 68.5084 8.508C68.9244 8.436 69.3404 8.4 69.7564 8.4C70.7004 8.4 71.3964 8.6 71.8444 9C72.2924 9.392 72.5164 10.008 72.5164 10.848V15H71.2084V12.144H69.3124C68.8644 12.144 68.5244 12.22 68.2924 12.372C68.0684 12.516 67.9564 12.772 67.9564 13.14C67.9564 13.492 68.0564 13.736 68.2564 13.872C68.4644 14.008 68.8004 14.076 69.2644 14.076C69.5844 14.076 69.8604 14.044 70.0924 13.98V14.976C69.9404 15.016 69.7644 15.048 69.5644 15.072C69.3644 15.104 69.1484 15.12 68.9164 15.12ZM69.8094 7.536V5.784H70.8894V6.624H73.9974L73.9374 7.536H69.8094ZM74.4254 15V12.66C74.4254 12.308 74.4934 12 74.6294 11.736C74.7654 11.464 75.0134 11.276 75.3734 11.172L74.0774 10.848V9.504C74.3974 9.224 74.8174 8.972 75.3374 8.748C75.8654 8.516 76.4814 8.4 77.1854 8.4C78.1374 8.4 78.8694 8.6 79.3814 9C79.8934 9.392 80.1494 10.052 80.1494 10.98V15H78.8414V10.944C78.8414 10.392 78.7094 10.008 78.4454 9.792C78.1894 9.568 77.7534 9.456 77.1374 9.456C76.7374 9.456 76.3654 9.512 76.0214 9.624C75.6774 9.736 75.4054 9.884 75.2054 10.068V10.284L76.5734 10.632V11.496C76.2614 11.576 76.0414 11.704 75.9134 11.88C75.7854 12.056 75.7214 12.32 75.7214 12.672V15H74.4254Z"
        fill="#212121" />
    <rect x="0.5" y="0.5" width="88" height="21" rx="1.5" stroke="#212121" />
</svg>