<svg width="17" height="16" viewBox="0 0 17 16" fill="none" xmlns="http://www.w3.org/2000/svg">
<path d="M8.5 0.25C4.21875 0.25 0.75 3.71875 0.75 8C0.75 12.2812 4.21875 15.75 8.5 15.75C12.7812 15.75 16.25 12.2812 16.25 8C16.25 3.71875 12.7812 0.25 8.5 0.25ZM13 8.875C13 9.09375 12.8125 9.25 12.625 9.25H9.75V12.125C9.75 12.3438 9.5625 12.5 9.375 12.5H7.625C7.40625 12.5 7.25 12.3438 7.25 12.125V9.25H4.375C4.15625 9.25 4 9.09375 4 8.875V7.125C4 6.9375 4.15625 6.75 4.375 6.75H7.25V3.875C7.25 3.6875 7.40625 3.5 7.625 3.5H9.375C9.5625 3.5 9.75 3.6875 9.75 3.875V6.75H12.625C12.8125 6.75 13 6.9375 13 7.125V8.875Z" fill="#239CD7"/>
</svg>
