<svg width="16" height="16" viewBox="0 0 16 16" fill="none" xmlns="http://www.w3.org/2000/svg">
    <path
        d="M13.75 0.40625L13.875 3C12.5938 1.5 9.96875 0.25 8 0.25H7.96875C4.1875 0.25 1.03125 2.96875 0.375 6.5625C0.375 6.59375 0.375 6.625 0.375 6.625C0.375 6.84375 0.53125 7 0.75 7H2.28125C2.4375 7 2.59375 6.875 2.625 6.71875C3.1875 4.40625 5.59375 2.53125 7.96875 2.53125C9.59375 2.53125 11.625 3.59375 12.5312 4.9375L9.375 4.78125H9.34375C9.15625 4.78125 8.96875 4.96875 8.96875 5.15625V6.65625C8.96875 6.84375 9.15625 7.03125 9.34375 7.03125H15.625C15.8125 7.03125 16 6.84375 16 6.65625V0.375C16 0.1875 15.8125 0 15.625 0H14.125C13.9375 0.03125 13.75 0.1875 13.75 0.375C13.75 0.40625 13.75 0.40625 13.75 0.40625ZM7.96875 13.5C6.34375 13.5 4.3125 12.4375 3.40625 11.0938L6.59375 11.25H6.625C6.8125 11.25 7 11.0625 7 10.875V9.375C7 9.1875 6.8125 9 6.625 9H0.375C0.15625 9 0 9.1875 0 9.375V15.625C0 15.8438 0.15625 16 0.375 16H1.84375C2.03125 16 2.21875 15.8438 2.21875 15.625L2.09375 13.0312C3.375 14.5312 6 15.75 7.96875 15.75C11.75 15.75 14.9062 13.0625 15.5938 9.46875C15.5938 9.4375 15.5938 9.40625 15.5938 9.375C15.5938 9.1875 15.4375 9 15.2188 9H13.6875C13.5312 9.03125 13.375 9.15625 13.3125 9.3125C12.75 11.625 10.375 13.5 7.96875 13.5Z"
        fill="#239CD7" />
</svg>