<svg width="16" height="16" viewBox="0 0 16 16" fill="none" xmlns="http://www.w3.org/2000/svg">
    <path
        d="M0.25 8C0.25 12.2812 3.71875 15.75 8 15.75C12.2812 15.75 15.75 12.2812 15.75 8C15.75 3.71875 12.2812 0.25 8 0.25C3.71875 0.25 0.25 3.71875 0.25 8ZM4.71875 8.90625C4.4375 9.21875 3.9375 9.21875 3.65625 8.9375L3.3125 8.59375C3 8.28125 3 7.8125 3.3125 7.53125L7.46875 3.375C7.75 3.09375 8.21875 3.09375 8.53125 3.375L12.6562 7.53125C12.9688 7.8125 12.9688 8.28125 12.6562 8.59375L12.3125 8.9375C12.0312 9.21875 11.5312 9.21875 11.25 8.90625L9 6.5625V12.25C9 12.6875 8.65625 13 8.25 13H7.75C7.3125 13 7 12.6875 7 12.25V6.5625L4.71875 8.90625Z"
        fill="#DF1F29" />
</svg>