<svg width="18" height="12" viewBox="0 0 18 12" fill="none" xmlns="http://www.w3.org/2000/svg">
    <path
        d="M4 3V9H14V3H4ZM16.5 6C16.5 5.1875 17.1562 4.5 18 4.5V1.5C18 0.6875 17.3125 0 16.5 0H1.5C0.65625 0 0 0.6875 0 1.5V4.5C0.8125 4.5 1.5 5.1875 1.5 6C1.5 6.84375 0.8125 7.5 0 7.5V10.5C0 11.3438 0.65625 12 1.5 12H16.5C17.3125 12 18 11.3438 18 10.5V7.5C17.1562 7.5 16.5 6.84375 16.5 6ZM15 2.75V9.25C15 9.6875 14.6562 10 14.25 10H3.75C3.3125 10 3 9.6875 3 9.25V2.75C3 2.34375 3.3125 2 3.75 2H14.25C14.6562 2 15 2.34375 15 2.75Z"
        fill="#A7171F" />
</svg>