<svg width="17" height="16" viewBox="0 0 17 16" fill="none" xmlns="http://www.w3.org/2000/svg">
    <path
        d="M0.75 8C0.75 12.2812 4.21875 15.75 8.5 15.75C12.7812 15.75 16.25 12.2812 16.25 8C16.25 3.71875 12.7812 0.25 8.5 0.25C4.21875 0.25 0.75 3.71875 0.75 8ZM5.21875 8.90625C4.9375 9.21875 4.4375 9.21875 4.15625 8.9375L3.8125 8.59375C3.5 8.28125 3.5 7.8125 3.8125 7.53125L7.96875 3.375C8.25 3.09375 8.71875 3.09375 9.03125 3.375L13.1562 7.53125C13.4688 7.8125 13.4688 8.28125 13.1562 8.59375L12.8125 8.9375C12.5312 9.21875 12.0312 9.21875 11.75 8.90625L9.5 6.5625V12.25C9.5 12.6875 9.15625 13 8.75 13H8.25C7.8125 13 7.5 12.6875 7.5 12.25V6.5625L5.21875 8.90625Z"
        fill="white" />
</svg>