<svg width="17" height="16" viewBox="0 0 17 16" fill="none" xmlns="http://www.w3.org/2000/svg">
    <path
        d="M16.25 8C16.25 3.71875 12.7812 0.25 8.5 0.25C4.21875 0.25 0.75 3.71875 0.75 8C0.75 12.2812 4.21875 15.75 8.5 15.75C12.7812 15.75 16.25 12.2812 16.25 8ZM11.75 7.125C12.0312 6.8125 12.5312 6.8125 12.8125 7.09375L13.1562 7.4375C13.4688 7.71875 13.4688 8.21875 13.1562 8.5L9 12.6562C8.71875 12.9375 8.25 12.9375 7.96875 12.6562L3.8125 8.5C3.53125 8.21875 3.53125 7.75 3.8125 7.4375L4.15625 7.09375C4.4375 6.8125 4.9375 6.8125 5.21875 7.125L7.5 9.46875V3.75C7.5 3.34375 7.8125 3 8.25 3H8.75C9.15625 3 9.5 3.34375 9.5 3.75V9.46875L11.75 7.125Z"
        fill="#239CD7" />
</svg>