<svg width="40" height="40" viewBox="0 0 40 40" fill="none" xmlns="http://www.w3.org/2000/svg">
    <path
        d="M14 26.5C14 27.3438 14.6562 28 15.5 28H24.5C25.3125 28 26 27.3438 26 26.5V16H14V26.5ZM22.5 18.5C22.5 18.25 22.7188 18 23 18C23.25 18 23.5 18.25 23.5 18.5V25.5C23.5 25.7812 23.25 26 23 26C22.7188 26 22.5 25.7812 22.5 25.5V18.5ZM19.5 18.5C19.5 18.25 19.7188 18 20 18C20.25 18 20.5 18.25 20.5 18.5V25.5C20.5 25.7812 20.25 26 20 26C19.7188 26 19.5 25.7812 19.5 25.5V18.5ZM16.5 18.5C16.5 18.25 16.7188 18 17 18C17.25 18 17.5 18.25 17.5 18.5V25.5C17.5 25.7812 17.25 26 17 26C16.7188 26 16.5 25.7812 16.5 25.5V18.5ZM26.5 13H22.75L22.4375 12.4375C22.3125 12.1875 22.0312 12 21.7812 12H18.1875C17.9375 12 17.625 12.1875 17.5312 12.4375L17.25 13H13.5C13.2188 13 13 13.25 13 13.5V14.5C13 14.7812 13.2188 15 13.5 15H26.5C26.75 15 27 14.7812 27 14.5V13.5C27 13.25 26.75 13 26.5 13Z"
        fill="#A1A1A1" />
</svg>