<svg width="25" height="32" viewBox="0 0 25 32" fill="none" xmlns="http://www.w3.org/2000/svg">
<path d="M12.1333 0C5.50224 0 0.133301 5.37587 0.133301 12C0.133301 16.4448 1.63274 17.8338 9.58774 30.589C10.7618 32.4714 13.5061 32.4692 14.6788 30.589C22.638 17.8271 24.1333 16.4439 24.1333 12C24.1333 5.36894 18.7574 0 12.1333 0ZM12.1333 29C4.1693 16.2304 3.1333 15.4242 3.1333 12C3.1333 7.02944 7.16274 3 12.1333 3C17.1039 3 21.1333 7.02944 21.1333 12C21.1333 15.4096 20.1854 16.0891 12.1333 29ZM7.1333 12C7.1333 9.23856 9.37186 7 12.1333 7C14.8947 7 17.1333 9.23856 17.1333 12C17.1333 14.7614 14.8947 17 12.1333 17C9.37186 17 7.1333 14.7614 7.1333 12Z" fill="#DF1F29"/>
</svg>
