<svg width="48" height="48" viewBox="0 0 48 48" fill="none" xmlns="http://www.w3.org/2000/svg">
    <circle cx="24" cy="24" r="24" fill="#70615E" />
    <path
        d="M17.4566 19.9481C18.0866 21.2981 18.8366 22.6181 19.8266 23.7281C20.1866 23.0681 20.4566 22.3781 20.7566 21.6881C21.9266 18.6281 22.5566 15.3881 22.9766 12.1781C23.2766 9.74812 23.4866 7.25813 23.4566 4.82812C20.6666 4.88812 17.8166 5.60812 15.2966 6.86812C15.2366 6.89812 15.1466 6.95812 15.0866 7.01812C15.0266 7.49812 15.0866 8.00812 15.0566 8.48812C15.1466 12.3881 15.8366 16.3481 17.4566 19.9481Z"
        fill="#FCD700" />
    <path
        d="M26.5759 19.7988C26.9959 21.1188 27.4759 22.4688 28.1359 23.6988C28.8559 22.8588 29.4559 21.9288 29.9959 20.9688C31.5859 17.9988 32.4259 14.6388 32.7559 11.2788C32.8759 9.86883 32.9659 8.42883 32.9059 7.01883C32.2759 6.62883 31.5559 6.35883 30.8959 6.05883C28.8559 5.27883 26.6959 4.85883 24.5059 4.79883C24.4759 5.99883 24.5359 7.19883 24.6259 8.36883C24.8959 12.2388 25.4359 16.0788 26.5759 19.7988Z"
        fill="#FCD700" />
    <path
        d="M10.4359 21.6886C11.8759 19.5586 12.7459 17.0986 13.3159 14.6086C13.8259 12.2986 14.0959 9.92859 14.0959 7.55859C13.9459 7.61859 13.7959 7.70859 13.6759 7.79859C11.2459 9.35859 9.14588 11.4586 7.61588 13.9486C5.36588 17.5786 4.40588 22.0486 4.94588 26.2786C7.19588 25.3486 9.08588 23.6686 10.4359 21.6886Z"
        fill="#FCD700" />
    <path
        d="M40.9445 14.9986C39.5945 12.4186 37.6145 10.1386 35.2445 8.42859C34.7945 8.12859 34.3745 7.79859 33.8945 7.55859C33.8945 9.44859 34.0745 11.3686 34.4045 13.2586C34.9145 16.1086 35.8145 18.9586 37.3745 21.3886C38.7245 23.5186 40.6745 25.3186 43.0445 26.2786C43.5245 22.4386 42.7745 18.4186 40.9445 14.9986Z"
        fill="#FCD700" />
    <path
        d="M18.2368 27.2084C18.1168 26.9684 17.8768 26.7884 17.6968 26.5784C16.8868 25.6484 16.2268 24.5984 15.6568 23.5184C15.2068 22.6484 14.8768 21.7184 14.5768 20.8184C14.3968 21.0884 14.3068 21.3884 14.2168 21.6884C13.6768 23.2184 12.8968 24.6884 11.9068 25.9784C10.3768 27.9584 8.3368 29.6384 5.9668 30.5084C5.9968 30.6884 6.0568 30.8684 6.1168 31.0184C6.7168 32.5184 7.4968 33.9584 8.4568 35.2484C8.8468 35.7284 9.2068 36.2684 9.6568 36.6884C9.9568 36.5984 10.1968 36.4184 10.4668 36.2684C13.3468 34.4084 15.6268 31.7084 17.3668 28.7984C17.6968 28.2884 18.0268 27.7784 18.2368 27.2084Z"
        fill="#FCD700" />
    <path
        d="M24.2355 21.8096C24.1455 21.4796 24.1755 21.1196 23.9655 20.8496C23.7555 21.1196 23.7855 21.5096 23.6955 21.8096C23.0655 25.0496 22.1055 28.2596 20.8155 31.2896C19.3455 34.7096 17.4255 38.0096 14.7255 40.6196C14.6055 40.7696 14.8755 40.8296 14.9655 40.8896C17.6655 42.2996 20.7255 43.0796 23.7855 43.1096C27.0555 43.1396 30.3855 42.3296 33.2355 40.7096C30.5355 38.0396 28.5255 34.7096 27.0555 31.2296C25.8555 28.1996 24.8655 25.0496 24.2355 21.8096Z"
        fill="#FCD700" />
    <path
        d="M33.7466 21.6596C33.6566 21.3896 33.5966 21.0896 33.4166 20.8496C33.2366 21.1496 33.1466 21.5096 33.0266 21.8396C32.3066 23.7896 31.2266 25.5896 29.8166 27.1196C29.6666 27.2396 29.7866 27.3896 29.8466 27.5096C30.4766 28.7096 31.1966 29.8496 31.9766 30.9296C33.5066 32.9996 35.3366 34.8896 37.5266 36.3296C37.7666 36.4796 38.0066 36.6596 38.2766 36.7196C38.4866 36.5696 38.6366 36.3296 38.7866 36.1496C39.8066 34.9196 40.6466 33.5696 41.3366 32.1296C41.5766 31.6196 41.8166 31.0796 41.9666 30.5396C40.6766 30.0596 39.5066 29.3696 38.4566 28.4996C36.2966 26.6996 34.6766 24.2996 33.7466 21.6596Z"
        fill="#FCD700" />
</svg>