<svg width="48" height="48" viewBox="0 0 48 48" fill="none" xmlns="http://www.w3.org/2000/svg">
    <path
        d="M46.2512 24.1647C46.2512 36.4107 36.356 46.3059 24.11 46.3059C11.864 46.3059 1.96875 36.4107 1.96875 24.1647C1.96875 11.9187 11.864 2.02344 24.11 2.02344C36.356 2.02344 46.2512 11.9187 46.2512 24.1647Z"
        fill="white" />
    <path
        d="M35.3174 35.5895C34.2787 35.0428 33.2399 34.5508 31.5998 34.5508C30.1784 34.5508 29.0304 35.0975 27.8823 35.5895C26.7342 36.1362 25.5315 36.6829 23.8914 36.6829C22.47 36.6829 21.4313 36.1909 20.2832 35.6442C19.1351 35.0975 17.8777 34.5508 16.2923 34.5508C14.8709 34.5508 13.7228 35.0975 12.5748 35.5895C11.4267 36.1362 10.1693 36.6829 8.5839 36.6829C8.47456 36.6829 8.41989 36.6829 8.31055 36.6829C8.47456 36.9016 8.63857 37.0656 8.80257 37.2843C10.4427 37.2296 11.6454 36.6829 12.7935 36.1362C13.8869 35.6442 14.9256 35.1521 16.2377 35.1521C17.7137 35.1521 18.8071 35.6442 20.0099 36.1909C21.1579 36.7376 22.3607 37.2843 23.8914 37.2843C25.6408 37.2843 26.8982 36.6829 28.1556 36.1362C29.249 35.6442 30.2878 35.1521 31.5998 35.1521C33.0759 35.1521 34.06 35.6442 35.044 36.1362C36.1374 36.6829 37.2855 37.2843 39.1989 37.2843C39.3629 37.0656 39.5269 36.8469 39.7456 36.6829C39.5816 36.6829 39.4176 36.6829 39.2536 36.6829C37.4495 36.6829 36.3561 36.1362 35.3174 35.5895Z"
        fill="#99877D" />
    <path
        d="M31.6002 35.6992C30.1787 35.6992 29.0307 36.2459 27.8826 36.7379C26.7346 37.2846 25.5318 37.8313 23.8917 37.8313C22.4703 37.8313 21.4316 37.3393 20.2835 36.7926C19.1355 36.2459 17.8781 35.6992 16.2926 35.6992C14.8712 35.6992 13.7232 36.2459 12.5751 36.7379C11.591 37.1753 10.5523 37.6673 9.29492 37.7767C9.45893 37.9407 9.62294 38.1594 9.84162 38.3234C10.9897 38.1594 11.9191 37.722 12.8485 37.2846C13.9418 36.7926 14.9806 36.3006 16.2926 36.3006C17.7687 36.3006 18.8621 36.7926 20.0649 37.3393C21.2129 37.886 22.4156 38.4327 23.9464 38.4327C25.6958 38.4327 26.9532 37.8313 28.2106 37.2846C29.304 36.7926 30.3428 36.3006 31.6548 36.3006C33.1309 36.3006 34.115 36.7926 35.099 37.2846C35.9737 37.722 36.9031 38.214 38.2152 38.378C38.3792 38.214 38.5979 37.9953 38.7619 37.8313C37.2858 37.722 36.3018 37.23 35.3724 36.7926C34.279 36.1912 33.1856 35.6992 31.6002 35.6992Z"
        fill="#99877D" />
    <path
        d="M31.6005 36.793C30.1791 36.793 29.031 37.3397 27.8829 37.8317C26.7349 38.3784 25.5321 38.9251 23.8921 38.9251C22.4706 38.9251 21.4319 38.4331 20.2839 37.8864C19.1358 37.3397 17.8784 36.793 16.293 36.793C14.8716 36.793 13.7235 37.3397 12.5754 37.8317C11.8647 38.1597 11.0993 38.4877 10.2793 38.7064C10.4433 38.8704 10.6073 39.0344 10.826 39.1984C11.5367 38.9798 12.1927 38.7064 12.8488 38.3784C13.9422 37.8864 14.9809 37.3943 16.293 37.3943C17.769 37.3943 18.8624 37.8864 20.0652 38.4331C21.2132 38.9798 22.416 39.5265 23.9467 39.5265C25.6962 39.5265 26.9536 38.9251 28.211 38.3784C29.3044 37.8864 30.3431 37.3943 31.6552 37.3943C33.1312 37.3943 34.1153 37.8864 35.0993 38.3784C35.7554 38.7064 36.4114 39.0344 37.1768 39.2531C37.3408 39.0891 37.5595 38.9251 37.7235 38.7611C36.7941 38.5424 36.0834 38.2144 35.3727 37.8317C34.2793 37.3397 33.1859 36.793 31.6005 36.793Z"
        fill="#99877D" />
    <path
        d="M31.6008 37.9414C30.1794 37.9414 29.0313 38.4881 27.8832 38.9801C26.7352 39.5268 25.5324 40.0735 23.8924 40.0735C22.4709 40.0735 21.4322 39.5815 20.2842 39.0348C19.1361 38.4881 17.8787 37.9414 16.2933 37.9414C14.8719 37.9414 13.7238 38.4881 12.5757 38.9801C12.1384 39.1988 11.701 39.3628 11.209 39.5268C11.373 39.6908 11.5917 39.8002 11.7557 39.9642C12.1384 39.8002 12.4664 39.6908 12.7944 39.5268C13.8878 39.0348 14.9265 38.5428 16.2386 38.5428C17.7147 38.5428 18.8081 39.0348 20.0108 39.5815C21.1589 40.1282 22.3616 40.6749 23.8924 40.6749C25.6418 40.6749 26.8992 40.0735 28.1566 39.5268C29.25 39.0348 30.2887 38.5428 31.6008 38.5428C33.0769 38.5428 34.0609 39.0348 35.045 39.5268C35.4277 39.6908 35.7557 39.9095 36.1384 40.0735C36.3024 39.9095 36.5211 39.8002 36.6851 39.6362C36.193 39.4722 35.7557 39.1988 35.3183 38.9801C34.2796 38.4881 33.1862 37.9414 31.6008 37.9414Z"
        fill="#99877D" />
    <path
        d="M31.6011 39.0879C30.1797 39.0879 29.0316 39.6346 27.8836 40.1266C26.7355 40.6733 25.5328 41.22 23.8927 41.22C22.4713 41.22 21.4325 40.728 20.2845 40.1813C19.1364 39.6346 17.879 39.0879 16.2936 39.0879C14.8722 39.0879 13.7241 39.6346 12.576 40.1266C12.4667 40.1813 12.3027 40.236 12.1934 40.2906C12.3574 40.4546 12.576 40.564 12.7947 40.6733H12.8494C13.9428 40.1813 14.9815 39.6893 16.2936 39.6893C17.7697 39.6893 18.8631 40.1813 20.0658 40.728C21.2139 41.2747 22.4166 41.8214 23.9473 41.8214C25.6968 41.8214 26.9542 41.22 28.2116 40.6733C29.305 40.1813 30.3437 39.6893 31.6558 39.6893C33.1319 39.6893 34.1159 40.1813 35.1 40.6733C35.1546 40.6733 35.2093 40.728 35.2093 40.728C35.3733 40.6186 35.592 40.4546 35.756 40.3453C35.592 40.2906 35.4827 40.1813 35.3186 40.1266C34.2799 39.6346 33.1865 39.0879 31.6011 39.0879Z"
        fill="#99877D" />
    <path
        d="M27.882 41.2751C26.7339 41.8218 25.5312 42.3685 23.8911 42.3685C22.4696 42.3685 21.4309 41.8764 20.2829 41.3297C19.1348 40.783 17.8774 40.2363 16.292 40.2363C15.1439 40.2363 14.1599 40.5643 13.2305 41.0017C13.4491 41.111 13.6678 41.2751 13.8865 41.3844C14.6519 41.0564 15.4173 40.8377 16.3466 40.8377C17.8227 40.8377 18.9161 41.3297 20.1189 41.8764C21.2669 42.4231 22.4697 42.9698 24.0004 42.9698C25.7498 42.9698 27.0072 42.3685 28.2646 41.8218C29.358 41.3297 30.3968 40.8377 31.7088 40.8377C32.7476 40.8377 33.5129 41.0564 34.2783 41.3844C34.497 41.2751 34.7157 41.111 34.8797 41.0017C34.005 40.5643 33.0209 40.2363 31.7088 40.2363C30.1234 40.2363 28.9753 40.783 27.882 41.2751Z"
        fill="#99877D" />
    <path
        d="M24 0C10.7153 0 0 10.7153 0 24C0 37.2301 10.7153 48 24 48C37.2301 48 48 37.2847 48 24C48 10.7153 37.2301 0 24 0ZM24 44.1731C12.8474 44.1731 3.82688 35.0979 3.82688 24C3.82688 12.8474 12.8474 3.82688 24 3.82688C35.1526 3.82688 44.1731 12.8474 44.1731 24C44.1731 35.0979 35.0979 44.1731 24 44.1731Z"
        fill="#ED1C2E" />
    <path
        d="M35.2077 18.0409C35.0437 18.8063 34.2783 19.5717 33.8956 19.8997C32.9662 20.6651 26.7339 24.4373 26.0779 25.312C25.3672 26.1867 25.2578 27.4988 25.2578 28.4828V35.7539H26.2419C26.2419 35.0979 26.2419 34.0045 26.2419 33.8405C26.2419 33.1844 26.6246 32.2004 27.3899 31.3803C28.6473 30.0136 31.6542 28.3735 33.5676 26.9521C35.2077 25.7494 35.317 24.1639 35.317 22.7425C35.317 21.5398 35.317 18.3143 35.317 17.7676L35.2077 18.0409Z"
        fill="#2FB457" />
    <path
        d="M25.2026 24.8753C25.9133 24.0006 32.3096 20.1191 33.1843 19.3537C34.1137 18.5883 35.1524 17.4402 35.1524 16.0188C35.1524 14.7614 35.1524 8.74776 35.1524 7.87305C35.1524 9.02111 34.4964 9.89583 33.6764 10.9892C32.747 12.2466 28.4281 14.5428 26.2959 16.0188C24.1638 17.4949 23.4531 19.0257 23.4531 20.8298C23.4531 22.3605 23.4531 32.4744 23.4531 35.7546H24.3825C24.3825 33.6225 24.3825 28.7022 24.3825 27.9368C24.4372 27.0074 24.5465 25.75 25.2026 24.8753Z"
        fill="#2FB457" />
    <path
        d="M20.3373 16.4562C18.3692 14.9801 14.3783 11.7546 13.9409 11.0986C13.5036 10.4425 12.4648 9.29448 12.4648 7.92773C12.4648 8.96646 12.4648 14.5974 12.4648 15.5268C12.4648 16.6202 12.9569 18.5883 14.8703 19.9551C16.7838 21.3218 19.4079 23.3446 20.2279 24.1646C21.048 24.9847 21.7587 26.4061 21.7587 28.4835C21.7587 30.0143 21.7587 34.0052 21.7587 35.8093H22.6881C22.6881 32.6384 22.6881 23.1806 22.6881 21.2125C22.7427 18.8617 22.3054 17.9323 20.3373 16.4562Z"
        fill="#2FB457" />
</svg>